<svg xmlns="http://www.w3.org/2000/svg" viewBox="0 0 600 400" width="600" height="400" style="font-family:system-ui,sans-serif">
<text x="300" y="24" text-anchor="middle" font-size="16" font-weight="bold" fill="#111">Monthly Revenue Trend</text>
<line x1="70" y1="340" x2="580" y2="340" stroke="#e5e7eb" stroke-width="1"/>
<text x="62" y="344" text-anchor="end" font-size="11" fill="#666">0</text>
<line x1="70" y1="195" x2="580" y2="195" stroke="#e5e7eb" stroke-width="1"/>
<text x="62" y="199" text-anchor="end" font-size="11" fill="#666">50000</text>
<line x1="70" y1="50" x2="580" y2="50" stroke="#e5e7eb" stroke-width="1"/>
<text x="62" y="54" text-anchor="end" font-size="11" fill="#666">100000</text>
<polyline points="70,203.70000000000002 172,50 274,145.7 376,104.51999999999998 478,29.69999999999999 580,192.68" fill="none" stroke="#E74C3C" stroke-width="2" stroke-linejoin="round"/>
<circle cx="70" cy="203.70000000000002" r="4" fill="#E74C3C"/>
<circle cx="172" cy="50" r="4" fill="#E74C3C"/>
<circle cx="274" cy="145.7" r="4" fill="#E74C3C"/>
<circle cx="376" cy="104.51999999999998" r="4" fill="#E74C3C"/>
<circle cx="478" cy="29.69999999999999" r="4" fill="#E74C3C"/>
<circle cx="580" cy="192.68" r="4" fill="#E74C3C"/>
<line x1="70" y1="340" x2="580" y2="340" stroke="#9ca3af" stroke-width="1"/>
<text x="70" y="356" text-anchor="middle" font-size="11" fill="#666">2024-01</text>
<text x="172" y="356" text-anchor="middle" font-size="11" fill="#666">2024-02</text>
<text x="274" y="356" text-anchor="middle" font-size="11" fill="#666">2024-03</text>
<text x="376" y="356" text-anchor="middle" font-size="11" fill="#666">2024-04</text>
<text x="478" y="356" text-anchor="middle" font-size="11" fill="#666">2024-05</text>
<text x="580" y="356" text-anchor="middle" font-size="11" fill="#666">2024-06</text>
<line x1="70" y1="50" x2="70" y2="340" stroke="#9ca3af" stroke-width="1"/>
</svg>