<svg xmlns="http://www.w3.org/2000/svg" viewBox="0 0 600 400" width="600" height="400" style="font-family:system-ui,sans-serif">
<text x="300" y="24" text-anchor="middle" font-size="16" font-weight="bold" fill="#111">Salary vs Performance Score</text>
<line x1="70" y1="340" x2="580" y2="340" stroke="#e5e7eb" stroke-width="1"/>
<text x="62" y="344" text-anchor="end" font-size="11" fill="#666">3</text>
<line x1="70" y1="267.5" x2="580" y2="267.5" stroke="#e5e7eb" stroke-width="1"/>
<text x="62" y="271.5" text-anchor="end" font-size="11" fill="#666">3.5</text>
<line x1="70" y1="195" x2="580" y2="195" stroke="#e5e7eb" stroke-width="1"/>
<text x="62" y="199" text-anchor="end" font-size="11" fill="#666">4</text>
<line x1="70" y1="122.5" x2="580" y2="122.5" stroke="#e5e7eb" stroke-width="1"/>
<text x="62" y="126.5" text-anchor="end" font-size="11" fill="#666">4.5</text>
<line x1="70" y1="50" x2="580" y2="50" stroke="#e5e7eb" stroke-width="1"/>
<text x="62" y="54" text-anchor="end" font-size="11" fill="#666">5</text>
<line x1="70" y1="50" x2="70" y2="340" stroke="#e5e7eb" stroke-width="1"/>
<text x="70" y="356" text-anchor="middle" font-size="11" fill="#666">50000</text>
<line x1="240" y1="50" x2="240" y2="340" stroke="#e5e7eb" stroke-width="1"/>
<text x="240" y="356" text-anchor="middle" font-size="11" fill="#666">100000</text>
<line x1="410" y1="50" x2="410" y2="340" stroke="#e5e7eb" stroke-width="1"/>
<text x="410" y="356" text-anchor="middle" font-size="11" fill="#666">150000</text>
<line x1="580" y1="50" x2="580" y2="340" stroke="#e5e7eb" stroke-width="1"/>
<text x="580" y="356" text-anchor="middle" font-size="11" fill="#666">200000</text>
<circle cx="393" cy="122.5" r="5" fill="#9B59B6" opacity="0.7"/>
<circle cx="495" cy="79" r="5" fill="#9B59B6" opacity="0.7"/>
<circle cx="274" cy="209.5" r="5" fill="#9B59B6" opacity="0.7"/>
<circle cx="223" cy="267.5" r="5" fill="#9B59B6" opacity="0.7"/>
<circle cx="444" cy="93.49999999999997" r="5" fill="#9B59B6" opacity="0.7"/>
<circle cx="233.20000000000002" cy="180.50000000000006" r="5" fill="#9B59B6" opacity="0.7"/>
<circle cx="403.2" cy="151.50000000000003" r="5" fill="#9B59B6" opacity="0.7"/>
<circle cx="189" cy="311" r="5" fill="#9B59B6" opacity="0.7"/>
<circle cx="529" cy="64.49999999999994" r="5" fill="#9B59B6" opacity="0.7"/>
<circle cx="144.8" cy="340" r="5" fill="#9B59B6" opacity="0.7"/>
<circle cx="416.8" cy="136.99999999999994" r="5" fill="#9B59B6" opacity="0.7"/>
<circle cx="199.20000000000002" cy="238.49999999999997" r="5" fill="#9B59B6" opacity="0.7"/>
<circle cx="212.8" cy="296.5" r="5" fill="#9B59B6" opacity="0.7"/>
<circle cx="199.20000000000002" cy="195" r="5" fill="#9B59B6" opacity="0.7"/>
<circle cx="478" cy="108.00000000000006" r="5" fill="#9B59B6" opacity="0.7"/>
<circle cx="563" cy="79" r="5" fill="#9B59B6" opacity="0.7"/>
<circle cx="614" cy="50" r="5" fill="#9B59B6" opacity="0.7"/>
<circle cx="342" cy="165.99999999999997" r="5" fill="#9B59B6" opacity="0.7"/>
<circle cx="427" cy="180.50000000000006" r="5" fill="#9B59B6" opacity="0.7"/>
<circle cx="223" cy="224.00000000000003" r="5" fill="#9B59B6" opacity="0.7"/>
<line x1="70" y1="340" x2="580" y2="340" stroke="#9ca3af" stroke-width="1"/>
<line x1="70" y1="50" x2="70" y2="340" stroke="#9ca3af" stroke-width="1"/>
</svg>