<svg xmlns="http://www.w3.org/2000/svg" viewBox="0 0 600 400" width="600" height="400" style="font-family:system-ui,sans-serif">
<text x="300" y="24" text-anchor="middle" font-size="16" font-weight="bold" fill="#111">Salary Distribution</text>
<line x1="70" y1="340" x2="580" y2="340" stroke="#e5e7eb" stroke-width="1"/>
<text x="62" y="344" text-anchor="end" font-size="11" fill="#666">0</text>
<line x1="70" y1="267.5" x2="580" y2="267.5" stroke="#e5e7eb" stroke-width="1"/>
<text x="62" y="271.5" text-anchor="end" font-size="11" fill="#666">1</text>
<line x1="70" y1="195" x2="580" y2="195" stroke="#e5e7eb" stroke-width="1"/>
<text x="62" y="199" text-anchor="end" font-size="11" fill="#666">2</text>
<line x1="70" y1="122.5" x2="580" y2="122.5" stroke="#e5e7eb" stroke-width="1"/>
<text x="62" y="126.5" text-anchor="end" font-size="11" fill="#666">3</text>
<line x1="70" y1="50" x2="580" y2="50" stroke="#e5e7eb" stroke-width="1"/>
<text x="62" y="54" text-anchor="end" font-size="11" fill="#666">4</text>
<rect x="70" y="50" width="63.75" height="290" fill="#F39C12" stroke="#fff" stroke-width="0.5"/>
<rect x="133.75" y="50" width="63.75" height="290" fill="#F39C12" stroke="#fff" stroke-width="0.5"/>
<rect x="197.5" y="267.5" width="63.75" height="72.5" fill="#F39C12" stroke="#fff" stroke-width="0.5"/>
<rect x="261.25" y="267.5" width="63.75" height="72.5" fill="#F39C12" stroke="#fff" stroke-width="0.5"/>
<rect x="325" y="50" width="63.75" height="290" fill="#F39C12" stroke="#fff" stroke-width="0.5"/>
<rect x="388.75" y="122.5" width="63.75" height="217.5" fill="#F39C12" stroke="#fff" stroke-width="0.5"/>
<rect x="452.5" y="267.5" width="63.75" height="72.5" fill="#F39C12" stroke="#fff" stroke-width="0.5"/>
<rect x="516.25" y="195" width="63.75" height="145" fill="#F39C12" stroke="#fff" stroke-width="0.5"/>
<line x1="70" y1="340" x2="580" y2="340" stroke="#9ca3af" stroke-width="1"/>
<text x="70" y="356" text-anchor="middle" font-size="10" fill="#666">72000</text>
<text x="133.75" y="356" text-anchor="middle" font-size="10" fill="#666">89250</text>
<text x="197.5" y="356" text-anchor="middle" font-size="10" fill="#666">106500</text>
<text x="261.25" y="356" text-anchor="middle" font-size="10" fill="#666">123750</text>
<text x="325" y="356" text-anchor="middle" font-size="10" fill="#666">141000</text>
<text x="388.75" y="356" text-anchor="middle" font-size="10" fill="#666">158250</text>
<text x="452.5" y="356" text-anchor="middle" font-size="10" fill="#666">175500</text>
<text x="516.25" y="356" text-anchor="middle" font-size="10" fill="#666">192750</text>
<text x="580" y="356" text-anchor="middle" font-size="10" fill="#666">210000</text>
<line x1="70" y1="50" x2="70" y2="340" stroke="#9ca3af" stroke-width="1"/>
</svg>